<?xml version="1.0" encoding="UTF-8"?>

<svg width="192" height="192" fill="#000000" version="1.1" viewBox="0 0 118.8 118.8" xml:space="preserve" xmlns="http://www.w3.org/2000/svg">
<rect x="-154.6" y="-14.193" width="115.39" height="115.39" ry="0" fill="#ff347b" fill-rule="evenodd" stroke="#ff347b" stroke-width="3.4073"/>


<g transform="translate(1.8932 -2.7005)"><g transform="translate(1.4504 -.6392)"><g transform="translate(3.5876 -3.1776)" fill="#ff347b"><g transform="matrix(.74055 0 0 .74055 10.399 5.6089)"><g id="XMLID_51_" transform="matrix(.15731 0 0 .15731 26.927 10.395)">
	<path id="XMLID_53_" d="m164.71 456.69c0 2.966 1.647 5.686 4.266 7.072 2.617 1.385 5.799 1.207 8.245-0.468l55.09-37.616-67.6-32.22v63.232z"/>
	<path id="XMLID_52_" d="m492.43 32.443c-1.513-1.395-3.466-2.125-5.44-2.125-1.19 0-2.377 0.264-3.5 0.816l-475.59 233.29c-4.861 2.389-7.937 7.353-7.904 12.783 0.033 5.423 3.161 10.353 8.057 12.689l125.34 59.724 250.62-205.99-219.56 220.79 156.14 74.4c1.918 0.919 4.012 1.376 6.084 1.376 1.768 0 3.519-0.322 5.186-0.977 3.637-1.438 6.527-4.318 7.97-7.956l154.6-390c1.224-3.069 0.426-6.578-2.005-8.814z"/>
</g><g transform="matrix(1.1643 0 0 1.1643 -3.8807 -17.913)"><g transform="matrix(.046149 0 0 .046149 23.617 89.506)" fill="#ff347b">
	<g fill="#ff347b">
		<path d="m541.55-75.61c-14.091 9.318-123.71 150.26-137.66 159.79-21.216-27.678-53.39-43.508-89.153-41.723-44.418 2.214-76.805 36.534-97.01 73.765-24.055-34.708-59.829-65.15-104.07-62.616-40.248 2.303-73.626 26.283-90.479 62.721-21.912 47.375-8.033 104.6 20.759 145.9 8.886 12.751 18.771 24.485 29.338 35.521-14.878 9.917-29.983 19.464-45.448 28.416 0.47-7.059 0.792-14.132 0.838-21.221 0.114-16.768-25.885-16.758-26 0-0.099 14.346-1.305 28.619-2.6 42.898-0.64 7.028 3.613 10.994 8.851 12.076 0.978 0.68 2.037 1.305 3.296 1.762 13.03 4.742 26.03 9.48 38.494 15.589 14.993 7.354 28.172-15.071 13.122-22.449-6.251-3.067-12.637-5.814-19.081-8.439 16.183-9.501 31.991-19.606 47.552-30.123 40.825 37.227 88.735 67.207 130.77 103.05 4.042 3.442 8.658 3.966 12.697 2.731 3.22-0.111 6.49-1.366 9.252-4.286 54.548-57.649 122.5-104.53 161.33-175.31 22.231-40.512 30.442-92.993 10.902-135.96 13.867-9.48 122.78-152.13 136.79-161.39 13.913-9.209 1.5403-29.98-12.49-20.705zm-179.24 338.48c-35.922 49.307-86.945 86.782-129.83 130.13-47.172-38.359-101.7-70.111-142.56-115.16-31.433-34.657-61.212-83.944-48.721-132.9 1.2366-4.8474 2.866-9.68 4.8647-14.396 11.059-26.095 33.43-48.622 63.18-50.328 45.27-2.592 76.665 30.999 97.284 67.692 3.436 6.117 9.318 7.394 14.47 5.799 4.583 0.124 9.123-2.044 11.486-7.566 16.58-38.687 44.209-75.438 89.494-77.695 24.532-1.224 45.564 12.172 59.931 30.782-19.312 13.203-38.669 26.317-58.321 39.009-0.812-6.334-6.286-11.372-12.816-11.372-7.089 0-13 5.914-13 13v19.5c0 2.575 0.793 4.981 2.133 7.02 1.468 3.639 4.718 6.452 8.714 8.117-2.366-0.982 1.909 1.039 2.326 1.252 1.351 0.713 2.671 1.498 3.991 2.272 2.473 1.457 4.916 2.95 7.475 4.266 6.307 3.239 14.066 1.688 17.783-4.664 3.189-5.446 1.808-13.267-3.433-16.958 19.616-12.677 38.958-25.771 58.234-38.958 0.538 1.27 1.081 2.539 1.563 3.819 17.652 47.343-6.702 99.526-34.245 137.34z" fill="#ff347b"/>
	</g>
</g></g></g><path d="m34.41 114.78c-0.62463-0.41232-0.78723-0.83212-0.83224-2.1486-0.04793-1.4019 0.13412-2.4514 0.71518-4.1228 0.2152-0.61904 0.36038-1.1755 0.32264-1.2367-0.03773-0.0612-0.16699-0.0798-0.28722-0.0417-0.12022 0.0382-0.4181 0.0357-0.66192-5e-3 -0.59484-0.10059-1.0512-0.57553-1.2321-1.2822-0.07902-0.30868-0.17831-0.56124-0.22064-0.56124-0.04234 0-0.14433 0.16349-0.22663 0.3633-0.2167 0.52611-0.9519 1.2823-1.3863 1.4258-0.562 0.18564-1.192-0.0226-1.6121-0.53302l-0.34174-0.41515-0.69681 0.24492c-1.1078 0.38934-1.9465 0.57074-3.2802 0.70937-3.8738 0.40268-6.7752-1.2508-7.5725-4.3152-0.22439-0.86265-0.22138-2.8334 6e-3 -3.9405 0.63146-3.0743 2.5385-5.3544 5.1259-6.1284 0.45541-0.13626 1.0451-0.20125 1.8421-0.203 1.0279-0.0027 1.2478 0.03273 1.7862 0.28442 0.86128 0.40257 1.2794 0.79236 1.641 1.5296 0.27351 0.55772 0.31227 0.76376 0.30908 1.6437-4e-3 1.0941-0.23891 1.7614-0.74537 2.1166-0.35289 0.24751-1.0044 0.22115-1.3548-0.05482-0.2873-0.22629-0.29142-0.24956-0.26625-1.5056l0.02557-1.2757-0.36526-0.3669c-0.34991-0.35147-0.40154-0.36689-1.228-0.36689-0.72181 0-0.96825 0.05189-1.5084 0.31742-1.7933 0.88174-2.8641 2.979-2.8914 5.6632-0.01916 1.8808 0.47215 3.0775 1.5596 3.7988 0.84597 0.56108 1.5701 0.72972 3.0939 0.72042 1.4214-9e-3 2.3199-0.17977 3.5865-0.68299l0.68389-0.2717 0.07947-0.91228c0.08662-0.99434 0.50028-2.7706 0.76426-3.2817 0.27046-0.5237 0.59177-0.74058 1.1812-0.79729 0.48391-0.04657 0.56834-0.02169 0.72036 0.21193 0.15848 0.24356 0.14551 0.38051-0.1627 1.7178-0.22588 0.98014-0.34191 1.7989-0.3564 2.5152-0.02145 1.0598-0.02093 1.062 0.25346 1.062 0.54682 0 1.4276-1.6769 2.1336-4.0622 0.3165-1.0693 0.57247-1.3643 1.2505-1.4408 0.62244-0.07025 0.86243 0.08023 0.86243 0.54094 0 0.17624-0.17013 1.1384-0.37806 2.1382-0.6438 3.0955-0.63843 3.4386 0.05373 3.4386 0.25412 0 0.49063-0.14484 0.95579-0.58535 0.95757-0.90681 0.97604-0.96864 0.89292-2.9901-0.0655-1.5929-0.05367-1.7635 0.14528-2.091 0.14566-0.23971 0.35561-0.39509 0.64106-0.47446 0.86504-0.24052 1.1945-0.08862 1.3256 0.61093 0.03993 0.21322 0.09809 0.38767 0.12918 0.38767 0.0311 0 0.23538-0.15721 0.45392-0.34935 0.78037-0.68608 1.7693-0.8527 2.5857-0.43569 1.3545 0.6919 1.6396 3.01 0.62558 5.0853-0.3447 0.70544-0.35105 0.7987-0.05971 0.87498 0.40553 0.10618 1.0211-0.1538 1.5606-0.65907 0.5264-0.49304 0.52976-0.50078 0.65984-1.5278 0.15582-1.2301 0.53528-2.9257 0.74856-3.345 0.31592-0.62106 1.1504-0.85557 1.6924-0.47555 0.33465 0.23472 0.32241 0.62048-0.08498 2.6765-0.46416 2.3426-0.43448 3.235 0.10982 3.3032 0.34186 0.0428 0.46262-0.0157 0.93891-0.45534 0.42824-0.39526 0.49676-0.5252 0.56489-1.0712 0.16834-1.3491 0.76248-2.5329 1.7225-3.4321 0.61934-0.58008 1.1509-0.87456 2.0519-1.1369 0.48855-0.14221 0.64992-0.24302 0.6874-0.42948 0.02693-0.134 0.14977-0.87242 0.27294-1.641 0.51675-3.224 1.4859-5.4262 2.6266-5.9681 0.87135-0.41403 1.7086-0.07637 2.1873 0.88204 0.56749 1.1362 0.27284 3.6922-0.73744 6.3971-0.48777 1.306-1.4107 3.2905-1.9929 4.2851-0.38603 0.65953-0.41587 0.77011-0.3584 1.3279 0.08123 0.78794 0.36102 1.1697 0.8904 1.2149 0.3416 0.0291 0.4803-0.0369 0.90994-0.43344 0.47945-0.44251 0.5069-0.50009 0.5069-1.0629 0-2.4251 1.5964-4.4492 3.6261-4.5977 1.2911-0.09434 2.1733 0.69339 2.1773 1.9441 0.0036 1.0726-0.41918 1.712-1.1314 1.712-0.58876 0-0.79516-0.31761-0.64397-0.99099 0.15481-0.68956 0.05917-0.90938-0.39569-0.90938-1.0378 0-1.7882 2.3182-1.1826 3.6536 0.28852 0.63633 0.73143 0.85498 1.6147 0.79714 0.75346-0.0494 1.4488-0.34862 2.119-0.912 0.41462-0.34857 0.42867-0.38478 0.52733-1.3594 0.12175-1.2027 0.58389-3.0218 0.86606-3.4089 0.39088-0.53631 1.2851-0.74191 1.7491-0.40215 0.19872 0.1455 0.20395 0.20379 0.07247 0.81044-0.0779 0.35953-0.23917 1.1064-0.35836 1.6598-0.4236 1.9664-0.42584 2.9624-0.0067 2.9624 0.50212 0 1.2953-1.354 1.9062-3.2537 0.57766-1.7967 0.6694-1.9936 1.0106-2.1704 0.49351-0.25555 1.0744-0.21458 1.2736 0.08981 0.15193 0.23217 0.12729 0.4508-0.27396 2.4313-0.45981 2.2697-0.53784 3.1016-0.31205 3.3277 0.2515 0.25183 0.64652 0.13966 1.1524-0.32724 0.47404-0.43753 0.49989-0.49274 0.49989-1.0679 0-2.0952 1.1789-3.9432 2.8392-4.4508 2.4212-0.74005 4.0979 1.3046 2.8556 3.4825-0.39235 0.68788-1.2316 1.2905-2.2974 1.6496-0.43707 0.14727-0.78809 0.33276-0.80673 0.42629-0.06528 0.3277 0.53792 0.58468 1.3777 0.58702 0.6842 1e-3 0.89485-0.0515 1.6188-0.41018 1.2772-0.63284 2.0283-1.5453 3.0168-3.6648 1.0194-2.1856 1.1115-2.2969 2.0031-2.4173 0.40082-0.05415 0.55837-0.02368 0.77145 0.14904l0.26777 0.21711-0.31026 0.85176c-0.2064 0.56666-0.28558 0.95022-0.23653 1.1459 0.04054 0.16177 0.42464 0.80522 0.85356 1.4299 0.6145 0.89497 0.79941 1.2607 0.87218 1.7249 0.05076 0.32405 0.12389 0.62077 0.16244 0.65938 0.11541 0.11549 0.965-0.53502 1.4486-1.1092 0.74947-0.88998 1.305-0.83266 1.305 0.13467 0 0.669-0.44051 1.3661-1.2664 2.0041-0.64189 0.49585-1.2097 0.73501-2.0417 0.85996-0.29466 0.0442-0.78867 0.19837-1.0978 0.34251-1.3467 0.62793-2.9014 0.0474-2.9014-1.0835 0-0.33183 0.07591-0.51687 0.30693-0.74826 0.27043-0.27085 0.39561-0.30872 1.0524-0.31839 0.48066-7e-3 0.76166-0.0596 0.79107-0.14793 0.07675-0.23055-0.29456-1.0462-0.68764-1.5105l-0.37232-0.4398-0.62033 0.9432c-1.1657 1.7723-2.6369 2.8419-4.3169 3.1382-1.2194 0.21508-2.8984-0.21372-3.5159-0.89799-0.28262-0.31318-0.45811-0.29747-0.94348 0.0844-0.55493 0.43658-1.0102 0.65762-1.6513 0.80177-1.1022 0.2478-1.8141-0.16013-2.1203-1.215-0.15967-0.54994-0.19988-0.60516-0.30732-0.42184-0.55166 0.94139-0.83465 1.2621-1.3312 1.5087-0.4759 0.23627-0.58705 0.25219-0.96644 0.13838-0.40825-0.12255-0.71144-0.3667-1.0499-0.84572-0.14851-0.21017-0.18172-0.20243-1.0882 0.25366-0.51424 0.25875-1.2333 0.52408-1.5978 0.58964-1.1346 0.20402-2.4074-0.0946-3.1628-0.74205-0.24866-0.21312-0.48166-0.38749-0.51778-0.38749-0.03612 0-0.36814 0.22296-0.73785 0.49546-0.89592 0.66041-1.6764 0.8486-2.3891 0.57608-0.46646-0.17838-1.1817-0.8293-1.1817-1.0754 0-0.0593-0.10048-0.1079-0.22328-0.1079-0.1228 0-0.22328 0.0491-0.22328 0.10923 0 0.06-0.2512 0.30801-0.55823 0.55101-1.0374 0.82106-2.3017 0.84258-3.2209 0.0547-0.24361-0.20879-0.47461-0.37963-0.51332-0.37963-0.03872 0-0.32939 0.17466-0.64594 0.38812-1.1889 0.80167-2.3419 0.76903-3.1328-0.0886-0.30468-0.33037-0.46384-0.42917-0.56638-0.35152-1.1649 0.88212-2.0581 1.1662-2.9748 0.94599-0.30001-0.0721-0.60436-0.20207-0.67632-0.28889-0.16822-0.20295-0.4787-0.20056-0.87912 7e-3 -0.1749 0.0906-0.56048 0.21906-0.85685 0.28556-0.62897 0.14113-0.70796 0.23403-0.71029 0.83534-0.0024 0.63636-0.4036 2.9923-0.6617 3.8863-0.62366 2.1602-1.4217 3.0993-2.6333 3.099-0.36174-1.1e-4 -0.67197-0.0753-0.8814-0.21351zm1.4198-1.9408c0.26246-0.52991 0.48493-1.9239 0.64966-4.0703 0.18459-2.4052 0.05458-2.4402-0.68389-0.18384-0.72919 2.2279-0.95023 4.0945-0.54307 4.5858 0.18661 0.22515 0.34726 0.13292 0.5773-0.33159zm3.5831-7.5627c0.86473-0.5708 1.5172-1.8947 1.5516-3.1484 0.02408-0.87637-0.18444-1.2182-0.743-1.2182-0.25958 0-0.46307 0.12973-0.87582 0.55856l-0.53768 0.55857v1.7331c0 1.884 0.01 1.9091 0.6049 1.5165zm12.751 3e-3c0.19244-0.11749 0.47631-0.38142 0.6308-0.58648 0.27965-0.37116 0.28058-0.38028 0.2083-2.0406-0.04665-1.0718-0.11728-1.6826-0.19762-1.7092-0.2624-0.0869-1.0905 0.70484-1.4777 1.4129-0.33812 0.61828-0.39984 0.84769-0.44141 1.6403-0.04574 0.8724-0.03297 0.9369 0.23928 1.2095 0.34289 0.34333 0.57007 0.35941 1.0384 0.0734zm22.647-2.2565c0.67436-0.3174 1.1723-0.89853 1.1723-1.3682 0-0.50734-0.22968-0.78134-0.65494-0.78134-0.62913 0-1.2892 0.86984-1.4276 1.8814-0.06321 0.46177-0.04907 0.50339 0.17076 0.50339 0.13182 0 0.4646-0.10592 0.73953-0.23527zm-18.878-4.3794c0.58811-1.5797 0.94386-3.0024 1.0272-4.1079 0.10921-1.4486-0.22871-2.2199-0.6721-1.5342-0.38452 0.59464-0.78436 2.7788-1.0665 5.8262-0.17262 1.8641-0.03817 1.8295 0.71141-0.18402zm-9.8266-0.81641c-0.91003-0.44955-0.85462-1.6922 0.10231-2.294 0.28034-0.17632 0.49783-0.21531 1.0153-0.18197 0.57315 0.03699 0.69979 0.08875 0.97686 0.39918 1.0463 1.1726-0.60679 2.8118-2.0945 2.0768z" stroke-width=".11171"/></g></g></g></svg>